<!-- <?xml version="1.0" standalone="no"?>
<!DOCTYPE svg PUBLIC "-//W3C//DTD SVG 20010904//EN"
 "http://www.w3.org/TR/2001/REC-SVG-20010904/DTD/svg10.dtd"> -->
<svg version="1.0" xmlns="http://www.w3.org/2000/svg"
 width="720.000000pt" height="684.000000pt" viewBox="0 0 720.000000 684.000000"
 preserveAspectRatio="xMidYMid meet">

<g transform="translate(0.000000,684.000000) scale(0.100000,-0.100000)"
fill="#a9a9a9" stroke="none">
<path d="M1410 6752 c-88 -98 -197 -217 -244 -266 -27 -28 -70 -76 -95 -106
-24 -30 -52 -60 -61 -67 -10 -7 -73 -76 -141 -155 -68 -79 -176 -197 -239
-264 -63 -67 -164 -177 -225 -245 -60 -68 -122 -134 -136 -148 -14 -15 -67
-73 -118 -131 -51 -58 -97 -106 -102 -108 -5 -2 -9 -37 -9 -78 l0 -74 33 0
c17 -1 253 0 522 2 560 3 624 2 659 -12 32 -12 34 -43 7 -97 -10 -21 -38 -87
-61 -148 -24 -60 -47 -114 -51 -120 -7 -10 -27 -72 -82 -250 -64 -211 -81
-264 -98 -309 -11 -27 -19 -57 -19 -67 0 -11 -11 -61 -24 -112 -37 -142 -46
-185 -46 -215 0 -15 -9 -60 -20 -100 -11 -39 -20 -92 -20 -116 0 -25 -7 -71
-15 -103 -51 -196 -54 -1072 -4 -1283 6 -25 14 -67 19 -95 4 -27 25 -104 45
-170 20 -66 38 -127 40 -135 10 -41 56 -162 86 -225 11 -22 36 -80 57 -130 50
-122 183 -346 287 -485 11 -15 42 -56 68 -91 26 -35 95 -113 154 -174 58 -60
115 -120 127 -133 11 -12 47 -42 79 -65 31 -23 60 -50 63 -59 3 -10 20 -26 37
-35 28 -14 106 -71 212 -156 17 -13 46 -32 65 -42 19 -9 42 -24 51 -31 17 -16
92 -58 129 -75 14 -6 42 -19 63 -29 35 -18 37 -18 37 0 0 9 -7 37 -15 60 -8
23 -15 55 -15 71 0 16 -9 52 -20 81 -11 29 -20 65 -20 79 0 14 -9 60 -20 103
-18 67 -20 102 -18 235 5 237 29 317 147 501 20 30 52 87 71 125 20 39 44 83
54 98 23 35 69 118 96 176 11 25 35 67 54 95 36 55 99 177 110 214 4 12 18 34
31 48 13 15 34 47 45 73 12 25 31 64 42 86 12 22 28 54 36 70 8 17 25 44 37
60 12 17 39 64 60 105 20 40 49 92 63 114 14 23 51 90 81 149 73 142 86 165
104 185 9 9 18 28 22 42 4 14 31 66 60 115 30 50 72 124 93 165 22 41 58 104
79 140 l40 65 59 6 c100 11 633 10 654 -1 11 -6 26 -25 35 -44 21 -45 56 -68
145 -98 140 -48 182 -58 239 -58 31 0 88 -5 126 -11 85 -12 247 3 350 32 39
11 88 24 110 28 76 15 329 179 376 244 16 22 38 47 49 54 12 8 31 29 43 48 12
18 41 60 65 94 23 35 42 65 42 68 0 3 10 19 22 35 24 34 26 31 -43 73 -18 11
-43 27 -55 35 -249 171 -310 211 -384 256 -25 15 -61 39 -80 54 -19 15 -53 36
-75 48 -22 11 -49 29 -59 41 -11 12 -24 21 -31 21 -7 0 -20 9 -30 20 -10 11
-24 20 -30 20 -7 0 -18 6 -24 14 -6 7 -46 34 -89 60 -42 26 -106 68 -142 95
-52 38 -66 53 -68 78 -2 20 2 32 13 36 8 4 361 10 783 14 1013 10 911 12 931
-15 9 -12 38 -46 65 -75 26 -28 65 -75 87 -104 46 -62 98 -103 129 -103 38 0
129 60 171 112 72 91 100 165 116 301 24 201 9 289 -70 407 -74 111 -87 125
-186 201 -158 121 -336 231 -496 307 -33 16 -107 52 -165 79 -162 77 -191 89
-250 103 -30 7 -71 20 -90 28 -69 29 -165 62 -181 62 -9 0 -44 9 -79 21 -34
11 -75 22 -91 24 -15 2 -43 8 -61 14 -220 69 -298 91 -324 91 -17 0 -34 3 -38
7 -4 4 -42 15 -84 25 -42 9 -115 26 -162 38 -47 11 -110 27 -140 34 -63 15
-123 31 -195 51 -60 18 -168 40 -289 61 -49 8 -94 18 -100 21 -5 4 -28 10 -51
14 -22 5 -69 15 -105 24 -152 38 -230 55 -256 55 -15 0 -41 4 -58 9 -17 5 -85
21 -151 36 -66 15 -136 30 -155 35 -69 17 -126 29 -200 41 -109 17 -203 36
-300 60 -47 12 -110 24 -140 28 -30 4 -82 15 -115 24 -33 8 -96 21 -140 27
-44 6 -107 18 -140 25 -33 7 -85 18 -115 23 -118 22 -178 34 -240 48 -94 21
-278 54 -306 54 -13 0 -43 6 -66 14 -24 8 -71 16 -104 20 l-62 5 -42 -47z
m284 -47 c94 -19 214 -44 266 -56 52 -11 120 -25 150 -30 30 -5 96 -16 145
-24 106 -18 213 -41 310 -65 39 -9 124 -27 190 -39 245 -46 332 -62 392 -77
34 -7 73 -14 87 -14 15 0 43 -7 63 -15 20 -8 95 -27 167 -41 177 -34 262 -52
386 -81 58 -13 128 -29 155 -35 28 -6 79 -19 114 -29 35 -11 78 -19 94 -19 17
0 44 -4 61 -9 17 -6 76 -20 131 -32 101 -22 177 -41 315 -77 41 -11 93 -23
115 -26 77 -14 327 -77 362 -91 20 -8 45 -15 57 -15 11 0 50 -9 86 -19 63 -19
102 -30 260 -72 189 -50 592 -192 625 -219 7 -5 31 -17 56 -25 24 -9 77 -35
119 -59 41 -24 104 -60 141 -79 36 -19 98 -57 138 -83 40 -27 92 -60 115 -74
135 -81 239 -194 293 -317 25 -56 21 -239 -7 -367 -33 -149 -89 -236 -178
-273 -42 -17 -56 -10 -123 69 -29 35 -87 101 -128 147 l-75 84 -681 -7 c-374
-4 -783 -9 -910 -12 -126 -2 -240 -4 -251 -4 -27 0 -60 -28 -69 -57 -8 -30 11
-46 197 -160 88 -54 201 -125 251 -159 51 -34 107 -69 125 -78 19 -10 54 -33
79 -52 25 -19 62 -44 82 -55 38 -21 138 -84 212 -133 24 -16 67 -44 94 -61
123 -79 198 -131 202 -141 15 -40 -171 -267 -292 -355 -128 -93 -281 -169
-343 -169 -9 0 -35 -7 -57 -15 -56 -20 -344 -20 -484 1 -223 32 -245 42 -285
124 l-21 45 -390 2 c-357 2 -392 1 -412 -15 -12 -9 -44 -60 -71 -112 -26 -52
-64 -120 -84 -151 -20 -31 -62 -105 -93 -165 -32 -60 -63 -116 -70 -124 -8 -8
-32 -51 -54 -95 -23 -44 -64 -116 -91 -160 -27 -44 -50 -88 -50 -97 0 -9 -4
-19 -9 -23 -5 -3 -31 -44 -58 -91 -26 -47 -60 -107 -76 -132 -15 -26 -30 -54
-34 -62 -4 -8 -28 -52 -54 -97 -27 -46 -57 -104 -69 -130 -11 -26 -27 -54 -34
-63 -8 -8 -33 -51 -56 -95 -23 -44 -46 -85 -51 -90 -4 -6 -29 -51 -54 -100
-26 -50 -52 -97 -59 -105 -14 -16 -126 -220 -126 -228 0 -3 -6 -13 -14 -21
-36 -41 -109 -201 -124 -271 -23 -108 -22 -476 1 -540 9 -25 17 -58 17 -73 0
-15 7 -44 15 -64 18 -43 19 -73 3 -74 -29 -3 -54 4 -78 19 -14 9 -41 24 -61
33 -20 10 -54 33 -75 52 -22 19 -68 54 -104 78 -36 24 -85 62 -109 84 -124
112 -373 372 -395 413 -5 9 -26 36 -47 59 -21 23 -59 73 -84 110 -24 37 -53
79 -63 93 -66 88 -213 373 -266 515 -113 305 -155 477 -191 785 -24 211 -8
817 25 939 5 21 14 76 20 122 5 46 19 134 30 194 12 61 27 150 35 199 8 49 21
112 30 141 8 29 15 61 15 70 0 9 6 31 14 48 8 18 19 52 25 77 43 172 55 214
78 285 14 44 29 85 33 90 4 6 20 48 35 95 15 47 36 101 46 120 11 19 19 41 19
48 0 41 115 231 147 243 31 12 29 44 -3 66 -24 15 -84 17 -662 20 -351 2 -643
6 -650 8 -25 9 -11 39 47 99 139 145 336 359 351 380 8 13 76 88 152 167 75
79 153 164 175 189 62 73 97 112 309 339 110 119 224 243 253 276 73 83 99
105 123 105 12 0 98 -16 192 -35z"/>
<path d="M1510 6408 l0 -105 -400 -405 c-220 -224 -400 -413 -400 -422 0 -9 7
-16 16 -16 9 0 91 -4 182 -10 92 -5 273 -14 402 -20 129 -6 323 -15 430 -20
107 -5 294 -14 415 -20 121 -6 256 -15 300 -20 44 -5 125 -14 180 -20 55 -5
165 -17 245 -26 80 -8 292 -42 472 -75 179 -32 332 -59 339 -59 8 0 9 -3 3 -9
-5 -6 -400 -12 -949 -16 -517 -3 -951 -8 -964 -11 -22 -5 -23 -7 -17 -68 l7
-62 -145 -224 c-80 -123 -146 -229 -146 -236 0 -22 25 -22 190 2 91 13 298 41
460 64 306 42 452 63 754 105 98 14 181 24 183 21 5 -5 -67 -28 -487 -161
-168 -53 -415 -132 -550 -175 -210 -67 -556 -178 -790 -252 -80 -25 -90 -33
-90 -69 0 -24 5 -30 38 -38 20 -6 45 -11 54 -11 9 0 19 -4 23 -9 3 -6 -11
-122 -31 -258 -19 -136 -44 -302 -53 -368 -18 -126 -18 -145 5 -145 8 0 371
178 807 396 435 218 788 392 782 387 -5 -6 -329 -243 -719 -529 -391 -285
-778 -569 -860 -629 l-151 -110 -3 -67 c-3 -61 -1 -68 20 -79 13 -6 24 -12 25
-13 1 -1 33 -161 72 -356 98 -495 90 -460 110 -460 10 0 114 98 236 223 583
593 1266 1278 1243 1247 -25 -34 -426 -577 -558 -755 -248 -334 -737 -995
-789 -1066 -35 -48 -70 -101 -77 -117 l-13 -31 161 -188 c88 -103 208 -244
266 -313 59 -69 160 -188 226 -265 84 -99 125 -140 140 -140 20 0 21 6 27 130
4 72 7 195 8 274 l1 144 161 311 c89 171 208 399 264 506 56 107 136 260 177
340 1155 2220 1310 2520 1305 2534 -3 8 -22 16 -44 18 -30 2 -42 10 -60 37
-31 46 -29 59 10 66 17 3 649 4 1402 3 l1370 -3 35 -25 c19 -14 60 -46 90 -71
74 -62 103 -80 116 -71 6 4 14 63 17 142 8 169 -3 225 -64 313 -48 70 -120
123 -314 230 -55 30 -138 75 -184 101 -111 61 -367 166 -516 211 -66 20 -185
56 -265 80 -80 24 -253 69 -385 100 -132 31 -337 79 -455 106 -118 28 -260 61
-315 74 -302 71 -443 101 -770 160 -198 36 -382 70 -410 75 -55 9 -381 70
-545 101 -58 11 -127 24 -155 29 -27 5 -140 25 -250 45 -110 19 -231 42 -270
50 -138 28 -471 87 -522 92 l-53 5 0 -104z m438 -363 c82 -16 293 -54 587
-105 200 -35 869 -154 955 -170 103 -19 275 -49 395 -70 126 -21 1813 -442
1795 -448 -5 -2 -65 4 -132 13 -68 8 -244 31 -393 50 -148 19 -342 44 -430 55
-222 29 -615 79 -705 90 -41 5 -201 25 -355 45 -154 19 -386 49 -515 66 -129
16 -338 43 -465 59 -406 52 -856 109 -1000 127 -77 9 -144 20 -148 24 -5 4 44
71 109 149 l118 142 53 -6 c30 -3 89 -13 131 -21z m4267 -703 c99 -27 150 -56
186 -105 36 -48 69 -120 69 -148 0 -24 -41 -41 -78 -33 -65 15 -269 138 -344
207 -42 38 -59 84 -37 99 19 13 121 3 204 -20z m583 -299 c55 -38 75 -66 99
-143 28 -87 36 -135 29 -166 -8 -32 -13 -30 -127 42 l-86 54 -345 0 c-392 0
-375 -4 -364 77 10 76 9 75 202 63 93 -6 214 -8 269 -4 104 7 121 13 214 80
43 31 59 30 109 -3z m-4278 -54 c173 -6 351 -14 395 -17 l80 -7 -235 -54
c-505 -115 -943 -211 -946 -208 -4 4 232 288 250 300 6 4 40 5 76 2 36 -3 207
-10 380 -16z m105 -683 c-60 -41 -1247 -727 -1251 -723 -7 6 92 388 103 397 4
4 64 23 133 42 145 42 819 239 930 273 90 28 112 31 85 11z m-267 -968 c-79
-90 -258 -293 -398 -453 -425 -485 -542 -616 -546 -612 -2 2 -21 81 -43 176
l-38 172 576 439 c317 241 580 439 584 439 4 1 -57 -72 -135 -161z m2 -1465
c-200 -439 -368 -808 -374 -820 -10 -21 -20 -10 -144 153 l-132 175 83 107
c45 59 145 188 222 287 77 100 266 343 420 542 154 198 282 359 283 358 2 -2
-159 -363 -358 -802z"/>
<path d="M4157 4528 c-8 -13 -97 -169 -197 -348 -101 -179 -214 -380 -252
-448 -38 -68 -68 -131 -66 -140 3 -15 35 -18 323 -23 176 -4 337 -7 357 -8 34
-1 42 -8 143 -137 59 -74 112 -133 118 -132 7 2 40 59 75 127 81 157 72 152
305 149 l172 -3 5 -94 c4 -70 9 -96 20 -104 12 -7 55 19 185 114 94 67 187
134 207 148 40 28 50 42 40 57 -4 6 -95 63 -202 129 -182 110 -262 159 -727
443 -98 60 -242 148 -320 195 -78 48 -148 90 -156 93 -10 3 -21 -3 -30 -18z
m743 -737 l115 -59 -295 -6 c-162 -4 -375 -6 -472 -4 l-178 3 56 63 56 62 301
-1 302 0 115 -58z"/>
</g>
</svg>
